PathFileType	4	(X/Y/Z)	C:/Users/opensim2020/Desktop/walking_exp_matlab/subject03_walking07_straight_03.trc																																																																																																																																								
DataRate	CameraRate	NumFrames	NumMarkers	Units	OrigDataRate	OrigDataStartFrame	OrigNumFrames																																																																																																																																				
100	100	8	46	mm	100	2356	306																																																																																																																																				
Frame#	Time	LFHD			RFHD			LBHD			RBHD			C7			T10			CLAV			STRN			RBAK			LSHO			LUPA			LELB			LFRM			LWRA			LWRB			LFIN			RSHO			RUPA			RELB			RFRM			RWRA			RWRB			RFIN			LASI			RASI			LPSI			RPSI			LTHI			LKNE			LTIB			LANK			LHEE			LTOE			RTHI			RKNE			RTIB			RANK			RHEE			RTOE			*39			*40			*41			*42			*43			*44			*45		
		X1	Y1	Z1	X2	Y2	Z2	X3	Y3	Z3	X4	Y4	Z4	X5	Y5	Z5	X6	Y6	Z6	X7	Y7	Z7	X8	Y8	Z8	X9	Y9	Z9	X10	Y10	Z10	X11	Y11	Z11	X12	Y12	Z12	X13	Y13	Z13	X14	Y14	Z14	X15	Y15	Z15	X16	Y16	Z16	X17	Y17	Z17	X18	Y18	Z18	X19	Y19	Z19	X20	Y20	Z20	X21	Y21	Z21	X22	Y22	Z22	X23	Y23	Z23	X24	Y24	Z24	X25	Y25	Z25	X26	Y26	Z26	X27	Y27	Z27	X28	Y28	Z28	X29	Y29	Z29	X30	Y30	Z30	X31	Y31	Z31	X32	Y32	Z32	X33	Y33	Z33	X34	Y34	Z34	X35	Y35	Z35	X36	Y36	Z36	X37	Y37	Z37	X38	Y38	Z38	X39	Y39	Z39	X40	Y40	Z40	X41	Y41	Z41	X42	Y42	Z42	X43	Y43	Z43	X44	Y44	Z44	X45	Y45	Z45	X46	Y46	Z46
																																																																																																																																											
192	1.91	517.28662	1610.93726	1370.73914	516.79944	1616.30444	1503.41992	392.87012	1558.38794	1376.90649	397.35895	1563.84314	1507.76147	370.2995	1404.1947	1432.54187	341.25833	1090.10803	1433.07898	491.48901	1326.84998	1434.66663	536.13879	1162.99634	1426.68018	315.27463	1226.17419	1522.08972	452.4498	1365.14722	1279.854	483.6441	1178.02942	1202.75769	529.95941	1066.02368	1188.6792	620.64502	977.34985	1203.22119	701.84613	900.3927	1249.53564	686.12329	884.18604	1199.11389	752.14154	838.23108	1217.11279	441.70114	1348.203	1594.72522	420.93219	1125.35815	1662.95313	423.44504	1011.91187	1675.20203	421.42798	874.54663	1677.35425	438.81049	775.33148	1642.67798	405.82535	775.23584	1686.15613	416.11551	700.39465	1674.90625	501.41153	926.18878	1306.41833	517.36761	930.22577	1546.20642	343.28915	949.87274	1371.22144	353.50101	955.7973	1518.78088	397.71786	633.35602	1271.12097	357.84415	457.32849	1300.96094	223.5266	305.93701	1302.35242	107.21894	131.11	1344.03503	55.86328	120.30415	1379.8313	223.19193	32.32767	1375.58789	513.53986	641.77582	1593.02576	576.63885	471.45218	1558.99207	585.95325	285.3421	1567.53394	624.5141	71.63471	1525.85107	584.02478	39.34296	1473.64429	768.237	39.00988	1510.01636	NaN	NaN	NaN	NaN	NaN	NaN	NaN	NaN	NaN	NaN	NaN	NaN	NaN	NaN	NaN	NaN	NaN	NaN	NaN	NaN	NaN
193	1.92	528.01422	1612.30054	1371.91541	527.79663	1617.77295	1504.61829	403.52573	1560.00415	1378.36853	408.17752	1565.57117	1509.24207	381.12128	1405.60474	1434.22302	352.71555	1091.18091	1433.9906	502.3187	1328.52209	1435.96436	547.47595	1164.78772	1427.86121	326.86035	1227.09094	1523.80798	462.83713	1366.57556	1281.0813	492.81741	1178.84204	1204.4187	538.41644	1066.3595	1190.34351	628.39557	976.86438	1204.90454	708.98682	899.30646	1251.06799	692.84155	883.00952	1200.75977	758.60809	836.64819	1218.60278	452.83762	1349.50977	1596.16077	433.14493	1126.46118	1664.23328	435.99637	1012.9444	1676.38367	433.9451	875.57074	1678.50671	451.02594	776.35687	1643.76501	418.3793	776.24878	1687.31384	428.40561	701.45752	1676.12683	513.57349	926.7915	1307.91992	529.43439	932.68829	1547.41577	355.50873	950.32135	1372.0603	365.29837	958.24176	1519.63342	412.23657	633.10486	1271.36731	373.43423	456.85349	1299.70947	235.0255	308.56293	1302.09387	113.97105	137.63779	1344.42529	63.11165	129.47676	1380.94006	223.88599	32.12809	1375.82324	523.01099	643.68439	1594.29333	586.24591	473.11771	1559.07288	592.02704	285.99338	1567.54407	625.7879	71.98421	1525.19824	584.18298	39.38967	1473.52612	769.13397	38.58732	1507.12866	NaN	NaN	NaN	NaN	NaN	NaN	NaN	NaN	NaN	NaN	NaN	NaN	NaN	NaN	NaN	NaN	NaN	NaN	NaN	NaN	NaN
194	1.93	538.70984	1613.78589	1373.17505	538.79108	1619.33264	1505.76355	414.10318	1561.82617	1379.9082	419.19675	1567.41882	1510.62158	391.86459	1407.1377	1435.86438	364.01862	1092.59131	1434.88196	513.12384	1330.28711	1437.23035	558.74481	1166.73682	1428.99561	338.14737	1228.41309	1525.6875	473.18359	1368.32996	1282.36072	501.86856	1179.96924	1206.07385	546.71277	1067.02332	1192.30847	635.73462	976.41882	1206.64929	715.55829	897.97278	1252.55066	699.00177	881.76202	1202.34106	764.32422	834.75256	1220.04248	464.01877	1351.0863	1597.49731	445.53995	1127.9054	1665.37634	448.81656	1014.42065	1677.49023	446.84311	877.04083	1679.70776	463.67789	777.72906	1644.85742	431.38025	777.6687	1688.67981	441.14404	702.82233	1677.39417	525.50885	927.52063	1309.43433	541.21899	935.51349	1548.66003	367.65582	951.14771	1372.64197	376.94601	960.83521	1520.2384	427.15894	632.93488	1271.4823	390.51447	456.27625	1298.02014	247.75067	311.41406	1301.74011	122.2952	144.64494	1345.06995	72.07575	139.36761	1382.53662	224.7075	32.04782	1376.22253	532.81396	645.72607	1595.4696	595.45361	474.92343	1559.40222	597.30518	286.96945	1567.58826	626.45721	72.37997	1525.10815	584.39484	39.56642	1473.35291	769.45972	38.25869	1507.37695	NaN	NaN	NaN	450.4783	1666.76611	1419.70447	NaN	NaN	NaN	NaN	NaN	NaN	NaN	NaN	NaN	NaN	NaN	NaN	NaN	NaN	NaN
195	1.94	549.38049	1615.31409	1374.15662	549.91742	1620.90625	1506.99304	424.65344	1563.78833	1381.32861	429.88724	1569.40027	1512.08838	402.47351	1408.73181	1437.40344	374.98499	1094.14758	1435.73987	523.84088	1332.1709	1438.44226	569.88885	1168.76294	1430.10815	349.43411	1229.8678	1527.53235	483.50745	1370.31689	1283.72424	510.84573	1181.34009	1207.80237	554.91669	1067.91187	1194.50732	642.7132	976.00531	1208.47693	721.58557	896.3869	1253.92505	704.65082	880.42651	1203.75476	769.33777	832.52783	1221.28271	475.15927	1352.89502	1598.76868	458.05167	1129.51965	1666.53027	461.82108	1016.11511	1678.53125	460.10339	878.77228	1680.91907	476.83957	779.47113	1646.00146	444.86212	779.38208	1690.16125	454.46265	704.45648	1678.63965	537.09821	928.50238	1310.98474	552.73145	938.41602	1549.89026	379.48703	952.28381	1373.20349	388.22415	963.45935	1520.69019	442.34805	632.84418	1271.37952	408.39273	455.61383	1296.21899	261.83762	314.40729	1301.25769	132.12419	151.79489	1345.79285	83.00832	149.56915	1384.32617	226.02638	32.11209	1376.96069	543.14008	647.84088	1596.70215	603.51276	476.52585	1560.36768	601.21069	287.63632	1568.33435	625.67627	72.30912	1524.79333	584.28198	39.54321	1473.44873	769.4256	38.10404	1508.02734	NaN	NaN	NaN	461.57513	1668.61133	1421.03992	NaN	NaN	NaN	NaN	NaN	NaN	NaN	NaN	NaN	NaN	NaN	NaN	NaN	NaN	NaN
196	1.95	560.14417	1616.86511	1375.28735	560.90039	1622.30408	1508.10791	435.22159	1565.86426	1382.71729	440.70605	1571.37195	1513.36414	412.88959	1410.18652	1438.86572	385.90369	1095.62622	1436.5874	534.53705	1334.01599	1439.57117	580.97565	1170.69983	1431.11865	360.62619	1231.35889	1529.39355	493.66678	1372.38647	1285.03235	519.94525	1182.99951	1209.62732	562.95715	1069.00525	1196.89185	649.47803	975.68439	1210.24707	727.21472	894.69312	1255.23499	709.7959	879.01196	1205.07117	773.69312	829.95404	1222.31873	486.23993	1354.79614	1599.91895	470.56937	1131.35132	1667.68994	475.00024	1018.01447	1679.48975	473.67328	880.73022	1682.15198	490.40668	781.37219	1647.19055	458.6517	781.29669	1691.75867	468.2937	706.22089	1679.91089	548.97913	929.94983	1312.87939	563.93445	941.21582	1551.17749	391.24268	953.51898	1373.67065	399.44278	965.97003	1521.16382	457.72476	632.61658	1271.14978	427.46521	454.86053	1294.18054	277.33273	317.30814	1300.74292	143.9503	158.62383	1346.32605	95.86813	159.7973	1386.0144	227.43918	32.00569	1378.22705	553.57935	649.9068	1598.25146	610.18683	477.70078	1561.87585	603.56805	287.84775	1569.49463	625.35754	72.58368	1525.00488	584.09229	39.4856	1473.71106	769.3197	37.99427	1507.77673	NaN	NaN	NaN	473.1568	1671.30237	1424.4436	NaN	NaN	NaN	NaN	NaN	NaN	NaN	NaN	NaN	NaN	NaN	NaN	NaN	NaN	NaN
197	1.96	570.89734	1618.16406	1376.48059	571.74268	1623.44092	1509.19092	445.66745	1567.87622	1383.98132	451.29639	1573.2356	1514.58911	423.26779	1411.5282	1440.34436	396.84137	1097.01245	1437.54858	545.10046	1335.70508	1440.60364	591.93414	1172.48352	1432.00781	372.06396	1232.70789	1531.10291	503.70663	1374.43115	1286.39429	529.12109	1184.70422	1211.4696	570.91998	1070.06775	1199.16418	655.91699	975.31134	1211.92407	732.46124	892.72864	1256.33508	714.5575	877.50098	1206.15894	777.55249	827.02014	1223.2583	497.29153	1356.66992	1600.96094	483.09277	1133.20801	1668.91931	488.36597	1020.0249	1680.62769	487.56873	882.69385	1683.46179	504.41309	783.39423	1648.43591	473.10693	783.18671	1693.29602	482.64206	708.00922	1681.30811	560.14172	931.20721	1314.552	574.86023	943.75311	1552.47241	402.67371	954.55774	1374.42822	410.59967	968.07452	1521.88171	473.159	632.30737	1270.84473	446.86115	453.8251	1292.43945	294.03259	319.95032	1300.32434	157.04939	164.81564	1346.42407	110.2725	169.76299	1387.05969	229.00783	32.08582	1378.64795	563.42621	651.6955	1599.80481	616.04181	478.47403	1563.64758	605.70197	288.11179	1570.64917	625.07477	72.65879	1525.08594	583.98828	39.54364	1474.01807	769.27893	37.93399	1507.9071	NaN	NaN	NaN	484.17041	1672.81287	1425.16406	NaN	NaN	NaN	NaN	NaN	NaN	NaN	NaN	NaN	NaN	NaN	NaN	NaN	NaN	NaN
198	1.97	581.66241	1619.2616	1377.7644	583.28229	1624.67175	1510.95215	455.95917	1569.77881	1385.1333	461.73053	1574.90112	1515.71179	433.62524	1412.70032	1441.73914	407.3837	1098.29639	1438.66064	555.64307	1337.17163	1441.49707	602.77301	1174.07849	1432.776	383.3671	1234.10022	1532.84912	513.58649	1376.25598	1287.73206	538.1225	1186.18457	1213.25073	578.80145	1071.1344	1201.42383	662.14056	974.77167	1213.48291	737.39948	890.55103	1257.28833	719.0224	875.84894	1207.06738	780.93671	823.69147	1224.11755	508.33969	1358.41528	1601.90295	495.61597	1134.98645	1670.13354	501.6441	1021.9422	1681.81042	501.75034	884.6853	1684.797	518.85968	785.37158	1649.72192	487.87515	785.01544	1694.85254	497.44867	709.73535	1682.62744	570.90527	932.39392	1316.19812	585.56982	945.88251	1553.71033	413.45316	955.6546	1375.33167	421.66821	970.0257	1522.68896	488.57495	631.77637	1270.64539	466.74442	452.83707	1291.22705	311.97794	322.05051	1300.16321	171.73288	170.3344	1345.87756	125.68871	179.74469	1386.88538	232.1707	33.32879	1378.1759	572.34497	653.05157	1601.05933	621.32208	479.00626	1565.33179	608.59778	288.41974	1571.79578	625.25763	72.80335	1525.302	583.96313	39.64584	1474.23071	769.42059	37.79811	1507.94788	NaN	NaN	NaN	495.46765	1674.61365	1427.07617	NaN	NaN	NaN	NaN	NaN	NaN	NaN	NaN	NaN	NaN	NaN	NaN	NaN	NaN	NaN
199	1.98	592.17163	1620.07349	1378.79956	594.07013	1625.33655	1512.00732	466.30957	1571.40833	1386.20032	472.272	1576.25415	1516.66223	443.72882	1413.55432	1443.0426	417.95416	1099.32141	1439.79236	566.02802	1338.40942	1442.30188	613.45453	1175.40662	1433.39746	394.5827	1235.25745	1534.57678	523.28284	1377.81616	1288.98975	547.22168	1187.61084	1215.07166	586.30194	1071.81921	1203.51465	668.12854	974.01074	1214.87256	742.20941	888.12024	1258.0365	723.25464	874.01764	1207.84119	783.95599	819.96411	1224.88782	519.45428	1359.91382	1602.71472	508.14346	1136.5752	1671.38037	514.85248	1023.69183	1683.05286	516.03674	886.45667	1686.18323	533.71588	787.25476	1651.02698	503.04608	786.77899	1696.39673	512.71411	711.33984	1684.02405	581.21173	933.50952	1317.62122	596.13959	947.49176	1554.93335	423.81171	956.86084	1376.54382	432.42645	971.52509	1523.6405	503.78445	631.02081	1270.8418	486.67654	451.61072	1290.28918	330.87064	323.63101	1300.10046	187.16701	175.95308	1345.47827	141.69662	189.19949	1386.80872	239.40514	37.00711	1376.60315	580.27191	653.89246	1601.90076	626.56519	479.17731	1566.63647	612.08826	288.58127	1572.56335	625.3316	72.77438	1525.18713	583.93909	39.67567	1474.31787	769.51611	37.65213	1507.67554	NaN	NaN	NaN	506.21738	1675.19751	1426.36536	NaN	NaN	NaN	NaN	NaN	NaN	NaN	NaN	NaN	NaN	NaN	NaN	NaN	NaN	NaN
